<svg width="60" height="66" viewBox="0 0 60 66" xmlns="http://www.w3.org/2000/svg"><g fill="none" fill-rule="evenodd"><path d="M54.2 32c.1.1.2.1.2.2 1.9 2.4 3.3 5 4.1 7.9.4 1.5.6 2.9.6 4.5 0 1.3-.2 2.6-.4 3.9-.1.4-.3.8-.5 1.1-.3.3-.6.7-.9 1-.8.7-1.7 1.4-2.6 2-2.5 1.8-5.1 3.4-7.7 4.9-3.4 2-6.8 3.9-10.4 5.7-1.3.6-2.5 1.2-3.9 1.7-.5.2-1.1.4-1.7.5-.4.1-.9.1-1.3 0-.9-.2-1.8-.6-2.7-.9-1.9-.8-3.8-1.8-5.7-2.8-4.5-2.4-8.9-5-13.2-7.8-.5-.3-.9-.6-1.3-.9-.1-.1-.2-.1-.3-.3h.3c.3.1.6.3.9.4 1.6.7 3.2 1.1 4.9 1.4 1.3.2 2.5.3 3.8.3 2.3-.1 4.5-.5 6.6-1.5 1.9-.9 3.9-1.8 5.8-2.8 3.8-2 7.6-4.1 11.3-6.3 3.3-1.9 6.5-3.9 9.6-6l2.4-1.8c.5-.4.9-.7 1.3-1.2.5-.6.9-1.2 1-2v-.6c-.1-.3-.2-.4-.2-.6z" fill="#F5853F"/><path d="M54.4 32.2l-.2-.2c0 .2.1.4.1.5v.6c-.1.8-.4 1.5-1 2-.4.4-.9.8-1.3 1.2l-2.4 1.8c-2.3 1.6-4.6 3.1-7 4.5 11.6-2.1 15.1 2.8 16.1 5.9v-.1c.3-1.3.4-2.6.4-3.9 0-1.5-.2-3-.6-4.5-.8-2.9-2.2-5.5-4.1-7.8z" fill="#F47633"/><path d="M59.6 43.8c-.1-.1-.1-.2-.1-.3 0-.7-.1-1.5-.3-2.2-.7-3.3-1.9-6.3-4-8.9-.9-1.2-2-2.2-3.2-3-1.5-1-3-2.1-4.6-3.1-3.8-2.4-7.6-4.7-11.5-6.9-3.2-1.8-6.4-3.5-9.6-5.1-1.3-.6-2.5-1.2-3.8-1.7-.5-.2-1-.4-1.4-.5-.6-.2-1.3-.2-1.9 0-.4.1-.7.3-.9.5-.1.1-.1.1-.3.2v-.2c1.4-3.6 3.5-6.7 6.6-9.1 1.6-1.2 3.3-2.1 5.2-2.7.6-.2 1.1-.1 1.6 0 .7.2 1.4.4 2.1.7 1.7.7 3.4 1.5 5.1 2.4 5.1 2.7 10.1 5.5 14.9 8.7 1.2.8 2.3 1.6 3.4 2.4.5.4 1 .8 1.4 1.3.3.3.6.7.7 1.2.3 1 .4 2 .5 3 .4 3.7.5 7.5.5 11.3 0 2.7 0 5.3-.1 8-.1 1.3-.2 2.6-.2 3.9-.1 0-.1 0-.1.1z" fill="#F99F3F"/><path d="M19 12.1c.6-.2 1.3-.2 1.9 0 .5.1 1 .3 1.4.5 1.3.5 2.6 1.1 3.8 1.7 2.3 1.1 4.6 2.4 6.9 3.6-9.1-10-4.3-16-3.1-17.2-.1 0-.2 0-.3.1-1.9.6-3.6 1.5-5.2 2.7-3.1 2.4-5.2 5.5-6.6 9.1v.2c.1-.1.2-.2.3-.2.3-.3.6-.4.9-.5z" fill="#F78E34"/><path d="M25.3 2.3c-.1.2-.2.2-.3.3-2.8 1.9-4.9 4.3-6.5 7.3-.9 1.6-1.5 3.4-1.8 5.2-.1.5-.1 1-.2 1.5-.2 2.7-.4 5.4-.5 8.1-.1 4.4-.2 8.8-.1 13.1 0 1.5.1 2.9.1 4.4.1 1.9.2 3.8.4 5.7.1 1 .2 2.1.4 3.1.1.5.2.9.4 1.4.2.3.4.6.6.8.3.3.6.5 1 .6.1 0 .2.1.4.2-.5.1-.9.2-1.3.2-.8.1-1.6.1-2.4.1-2.1 0-4.2-.2-6.2-.8C7 52.8 4.9 51.7 3 50l-.1-.1c-.6-.5-1-1.1-1.2-1.8-.2-.6-.3-1.2-.4-1.8-.2-1.8-.4-3.6-.5-5.4-.2-4.2-.2-8.5-.1-12.7 0-1.9.1-3.7.3-5.6.1-1.3.2-2.5.4-3.8.1-.6.2-1.1.4-1.7.1-.4.4-.8.7-1.1.5-.5 1.1-1 1.7-1.5 1.5-1.2 3.1-2.2 4.7-3.3 4.8-3 9.7-5.9 14.7-8.4.4-.2.8-.4 1.3-.6l.4.1z" fill="#FEC23B"/><path d="M18 53.2c-.2-.3-.4-.5-.6-.9-.2-.4-.3-.9-.4-1.4-.2-1-.3-2-.4-3.1-.2-1.9-.3-3.8-.4-5.7-.1-1.3-.1-2.7-.1-4-1.1 3.5-5 13.2-13.1 11.5.1.1.2.2.3.2l.1.1c1.8 1.6 3.9 2.8 6.3 3.5 2 .6 4.1.9 6.2.8.8 0 1.6-.1 2.4-.1.4 0 .8-.1 1.3-.2-.2-.1-.3-.1-.4-.2-.6 0-.9-.2-1.2-.5z" fill="#FBAD30"/></g></svg>